<svg xmlns="http://www.w3.org/2000/svg" xmlns:xlink="http://www.w3.org/1999/xlink" version="1.1" width="256" height="256" viewBox="0 0 256 256" xml:space="preserve">
<g style="stroke: none; stroke-width: 0; stroke-dasharray: none; stroke-linecap: butt; stroke-linejoin: miter; stroke-miterlimit: 10; fill: none; fill-rule: nonzero; opacity: 1;" transform="translate(1.4065934065934016 1.4065934065934016) scale(2.81 2.81)">
	<path d="M 80.946 73.636 H 9.054 v -43.93 c 0 -1.835 1.487 -3.322 3.322 -3.322 h 65.247 c 1.835 0 3.322 1.487 3.322 3.322 V 73.636 z" style="stroke: none; stroke-width: 1; stroke-dasharray: none; stroke-linecap: butt; stroke-linejoin: miter; stroke-miterlimit: 10; fill: rgb(201,207,212); fill-rule: nonzero; opacity: 1;" transform=" matrix(1 0 0 1 0 0) " stroke-linecap="round"/>
	<path d="M 81.537 84.687 H 8.463 C 4.341 84.687 1 81.345 1 77.224 v -3.588 h 88 v 3.588 C 89 81.345 85.659 84.687 81.537 84.687 z" style="stroke: none; stroke-width: 1; stroke-dasharray: none; stroke-linecap: butt; stroke-linejoin: miter; stroke-miterlimit: 10; fill: rgb(176,182,188); fill-rule: nonzero; opacity: 1;" transform=" matrix(1 0 0 1 0 0) " stroke-linecap="round"/>
	<path d="M 80.945 74.636 H 9.054 c -0.552 0 -1 -0.447 -1 -1 v -43.93 c 0 -2.383 1.939 -4.322 4.322 -4.322 h 65.247 c 2.384 0 4.322 1.939 4.322 4.322 v 43.93 C 81.945 74.188 81.498 74.636 80.945 74.636 z M 10.054 72.636 h 69.891 v -42.93 c 0 -1.28 -1.042 -2.322 -2.322 -2.322 H 12.376 c -1.28 0 -2.322 1.042 -2.322 2.322 V 72.636 z" style="stroke: none; stroke-width: 1; stroke-dasharray: none; stroke-linecap: butt; stroke-linejoin: miter; stroke-miterlimit: 10; fill: rgb(0,0,0); fill-rule: nonzero; opacity: 1;" transform=" matrix(1 0 0 1 0 0) " stroke-linecap="round"/>
	<path d="M 81.537 85.687 H 8.463 C 3.796 85.687 0 81.89 0 77.224 v -3.588 c 0 -0.553 0.448 -1 1 -1 h 88 c 0.553 0 1 0.447 1 1 v 3.588 C 90 81.89 86.203 85.687 81.537 85.687 z M 2 74.636 v 2.588 c 0 3.563 2.899 6.463 6.463 6.463 h 73.074 c 3.563 0 6.463 -2.899 6.463 -6.463 v -2.588 H 2 z" style="stroke: none; stroke-width: 1; stroke-dasharray: none; stroke-linecap: butt; stroke-linejoin: miter; stroke-miterlimit: 10; fill: rgb(0,0,0); fill-rule: nonzero; opacity: 1;" transform=" matrix(1 0 0 1 0 0) " stroke-linecap="round"/>
	<path d="M 74.748 73.636 H 15.252 V 32.925 c 0 -0.218 0.176 -0.394 0.394 -0.394 h 58.708 c 0.218 0 0.394 0.176 0.394 0.394 V 73.636 z" style="stroke: none; stroke-width: 1; stroke-dasharray: none; stroke-linecap: butt; stroke-linejoin: miter; stroke-miterlimit: 10; fill: rgb(229,236,242); fill-rule: nonzero; opacity: 1;" transform=" matrix(1 0 0 1 0 0) " stroke-linecap="round"/>
	<path d="M 74.748 74.636 H 15.252 c -0.552 0 -1 -0.447 -1 -1 V 32.925 c 0 -0.769 0.625 -1.394 1.394 -1.394 h 58.708 c 0.769 0 1.395 0.625 1.395 1.394 v 40.711 C 75.748 74.188 75.301 74.636 74.748 74.636 z M 16.252 72.636 h 57.496 V 33.531 H 16.252 V 72.636 z" style="stroke: none; stroke-width: 1; stroke-dasharray: none; stroke-linecap: butt; stroke-linejoin: miter; stroke-miterlimit: 10; fill: rgb(0,0,0); fill-rule: nonzero; opacity: 1;" transform=" matrix(1 0 0 1 0 0) " stroke-linecap="round"/>
	<path d="M 51.419 80.161 H 38.581 c -0.552 0 -1 -0.447 -1 -1 s 0.448 -1 1 -1 h 12.838 c 0.553 0 1 0.447 1 1 S 51.972 80.161 51.419 80.161 z" style="stroke: none; stroke-width: 1; stroke-dasharray: none; stroke-linecap: butt; stroke-linejoin: miter; stroke-miterlimit: 10; fill: rgb(0,0,0); fill-rule: nonzero; opacity: 1;" transform=" matrix(1 0 0 1 0 0) " stroke-linecap="round"/>
	<path d="M 45 57.337 c -0.552 0 -1 -0.447 -1 -1 V 39.22 c 0 -0.552 0.448 -1 1 -1 s 1 0.448 1 1 v 17.117 C 46 56.89 45.552 57.337 45 57.337 z" style="stroke: none; stroke-width: 1; stroke-dasharray: none; stroke-linecap: butt; stroke-linejoin: miter; stroke-miterlimit: 10; fill: rgb(0,0,0); fill-rule: nonzero; opacity: 1;" transform=" matrix(1 0 0 1 0 0) " stroke-linecap="round"/>
	<path d="M 60.455 57.337 c -0.553 0 -1 -0.447 -1 -1 v -2.922 l -5.42 -4.28 c -0.24 -0.19 -0.38 -0.479 -0.38 -0.785 V 39.22 c 0 -0.552 0.447 -1 1 -1 s 1 0.448 1 1 v 8.645 l 5.42 4.28 c 0.24 0.19 0.38 0.479 0.38 0.785 v 3.406 C 61.455 56.89 61.008 57.337 60.455 57.337 z" style="stroke: none; stroke-width: 1; stroke-dasharray: none; stroke-linecap: butt; stroke-linejoin: miter; stroke-miterlimit: 10; fill: rgb(0,0,0); fill-rule: nonzero; opacity: 1;" transform=" matrix(1 0 0 1 0 0) " stroke-linecap="round"/>
	<path d="M 29.545 57.337 c -0.552 0 -1 -0.447 -1 -1 v -3.406 c 0 -0.306 0.14 -0.595 0.38 -0.785 l 5.419 -4.28 V 39.22 c 0 -0.552 0.448 -1 1 -1 s 1 0.448 1 1 v 9.129 c 0 0.306 -0.14 0.595 -0.38 0.785 l -5.419 4.28 v 2.922 C 30.545 56.89 30.097 57.337 29.545 57.337 z" style="stroke: none; stroke-width: 1; stroke-dasharray: none; stroke-linecap: butt; stroke-linejoin: miter; stroke-miterlimit: 10; fill: rgb(0,0,0); fill-rule: nonzero; opacity: 1;" transform=" matrix(1 0 0 1 0 0) " stroke-linecap="round"/>
	<circle cx="60.455999999999996" cy="61.385999999999996" r="4.376" style="stroke: none; stroke-width: 1; stroke-dasharray: none; stroke-linecap: butt; stroke-linejoin: miter; stroke-miterlimit: 10; fill: rgb(247,191,80); fill-rule: nonzero; opacity: 1;" transform="  matrix(1 0 0 1 0 0) "/>
	<path d="M 60.455 66.757 c -2.964 0 -5.376 -2.412 -5.376 -5.376 s 2.412 -5.375 5.376 -5.375 s 5.376 2.411 5.376 5.375 S 63.419 66.757 60.455 66.757 z M 60.455 58.006 c -1.861 0 -3.376 1.514 -3.376 3.375 s 1.515 3.376 3.376 3.376 s 3.376 -1.515 3.376 -3.376 S 62.316 58.006 60.455 58.006 z" style="stroke: none; stroke-width: 1; stroke-dasharray: none; stroke-linecap: butt; stroke-linejoin: miter; stroke-miterlimit: 10; fill: rgb(0,0,0); fill-rule: nonzero; opacity: 1;" transform=" matrix(1 0 0 1 0 0) " stroke-linecap="round"/>
	<circle cx="44.995999999999995" cy="61.385999999999996" r="4.376" style="stroke: none; stroke-width: 1; stroke-dasharray: none; stroke-linecap: butt; stroke-linejoin: miter; stroke-miterlimit: 10; fill: rgb(126,198,197); fill-rule: nonzero; opacity: 1;" transform="  matrix(1 0 0 1 0 0) "/>
	<path d="M 45 66.757 c -2.964 0 -5.375 -2.412 -5.375 -5.376 s 2.412 -5.375 5.375 -5.375 s 5.376 2.411 5.376 5.375 S 47.964 66.757 45 66.757 z M 45 58.006 c -1.861 0 -3.375 1.514 -3.375 3.375 s 1.514 3.376 3.375 3.376 s 3.376 -1.515 3.376 -3.376 S 46.861 58.006 45 58.006 z" style="stroke: none; stroke-width: 1; stroke-dasharray: none; stroke-linecap: butt; stroke-linejoin: miter; stroke-miterlimit: 10; fill: rgb(0,0,0); fill-rule: nonzero; opacity: 1;" transform=" matrix(1 0 0 1 0 0) " stroke-linecap="round"/>
	<circle cx="29.546000000000003" cy="61.385999999999996" r="4.376" style="stroke: none; stroke-width: 1; stroke-dasharray: none; stroke-linecap: butt; stroke-linejoin: miter; stroke-miterlimit: 10; fill: rgb(241,123,123); fill-rule: nonzero; opacity: 1;" transform="  matrix(1 0 0 1 0 0) "/>
	<path d="M 29.545 66.757 c -2.964 0 -5.375 -2.412 -5.375 -5.376 s 2.412 -5.375 5.375 -5.375 s 5.375 2.411 5.375 5.375 S 32.509 66.757 29.545 66.757 z M 29.545 58.006 c -1.861 0 -3.375 1.514 -3.375 3.375 s 1.514 3.376 3.375 3.376 s 3.375 -1.515 3.375 -3.376 S 31.406 58.006 29.545 58.006 z" style="stroke: none; stroke-width: 1; stroke-dasharray: none; stroke-linecap: butt; stroke-linejoin: miter; stroke-miterlimit: 10; fill: rgb(0,0,0); fill-rule: nonzero; opacity: 1;" transform=" matrix(1 0 0 1 0 0) " stroke-linecap="round"/>
	<path d="M 58.061 40.682 H 31.939 c -2.554 0 -4.624 -2.07 -4.624 -4.624 V 9.937 c 0 -2.554 2.07 -4.624 4.624 -4.624 h 26.121 c 2.554 0 4.624 2.07 4.624 4.624 v 26.121 C 62.684 38.612 60.614 40.682 58.061 40.682 z" style="stroke: none; stroke-width: 1; stroke-dasharray: none; stroke-linecap: butt; stroke-linejoin: miter; stroke-miterlimit: 10; fill: rgb(247,191,80); fill-rule: nonzero; opacity: 1;" transform=" matrix(1 0 0 1 0 0) " stroke-linecap="round"/>
	<path d="M 58.061 41.682 H 31.939 c -3.101 0 -5.624 -2.523 -5.624 -5.624 V 9.937 c 0 -3.101 2.523 -5.624 5.624 -5.624 h 26.121 c 3.102 0 5.624 2.523 5.624 5.624 v 26.121 C 63.685 39.159 61.162 41.682 58.061 41.682 z M 31.939 6.313 c -1.998 0 -3.624 1.625 -3.624 3.624 v 26.121 c 0 1.999 1.625 3.624 3.624 3.624 h 26.121 c 1.998 0 3.624 -1.625 3.624 -3.624 V 9.937 c 0 -1.998 -1.626 -3.624 -3.624 -3.624 H 31.939 z" style="stroke: none; stroke-width: 1; stroke-dasharray: none; stroke-linecap: butt; stroke-linejoin: miter; stroke-miterlimit: 10; fill: rgb(0,0,0); fill-rule: nonzero; opacity: 1;" transform=" matrix(1 0 0 1 0 0) " stroke-linecap="round"/>
	<path d="M 44.017 31.207 c -0.552 0 -1 -0.448 -1 -1 v -11.31 c 0 -1.163 -0.946 -2.108 -2.109 -2.108 h -2.732 c -1.163 0 -2.109 0.946 -2.109 2.108 v 11.31 c 0 0.552 -0.448 1 -1 1 s -1 -0.448 -1 -1 v -11.31 c 0 -2.265 1.843 -4.108 4.109 -4.108 h 2.732 c 2.266 0 4.109 1.843 4.109 4.108 v 11.31 C 45.017 30.759 44.569 31.207 44.017 31.207 z" style="stroke: none; stroke-width: 1; stroke-dasharray: none; stroke-linecap: butt; stroke-linejoin: miter; stroke-miterlimit: 10; fill: rgb(0,0,0); fill-rule: nonzero; opacity: 1;" transform=" matrix(1 0 0 1 0 0) " stroke-linecap="round"/>
	<path d="M 44.017 23.998 h -8.95 c -0.552 0 -1 -0.448 -1 -1 s 0.448 -1 1 -1 h 8.95 c 0.552 0 1 0.448 1 1 S 44.569 23.998 44.017 23.998 z" style="stroke: none; stroke-width: 1; stroke-dasharray: none; stroke-linecap: butt; stroke-linejoin: miter; stroke-miterlimit: 10; fill: rgb(0,0,0); fill-rule: nonzero; opacity: 1;" transform=" matrix(1 0 0 1 0 0) " stroke-linecap="round"/>
	<path d="M 51.977 31.207 c -0.553 0 -1 -0.448 -1 -1 V 15.789 c 0 -0.552 0.447 -1 1 -1 s 1 0.448 1 1 v 14.418 C 52.977 30.759 52.529 31.207 51.977 31.207 z" style="stroke: none; stroke-width: 1; stroke-dasharray: none; stroke-linecap: butt; stroke-linejoin: miter; stroke-miterlimit: 10; fill: rgb(0,0,0); fill-rule: nonzero; opacity: 1;" transform=" matrix(1 0 0 1 0 0) " stroke-linecap="round"/>
	<path d="M 54.933 16.789 h -5.911 c -0.553 0 -1 -0.448 -1 -1 s 0.447 -1 1 -1 h 5.911 c 0.553 0 1 0.448 1 1 S 55.485 16.789 54.933 16.789 z" style="stroke: none; stroke-width: 1; stroke-dasharray: none; stroke-linecap: butt; stroke-linejoin: miter; stroke-miterlimit: 10; fill: rgb(0,0,0); fill-rule: nonzero; opacity: 1;" transform=" matrix(1 0 0 1 0 0) " stroke-linecap="round"/>
	<path d="M 54.933 31.207 h -5.911 c -0.553 0 -1 -0.448 -1 -1 s 0.447 -1 1 -1 h 5.911 c 0.553 0 1 0.448 1 1 S 55.485 31.207 54.933 31.207 z" style="stroke: none; stroke-width: 1; stroke-dasharray: none; stroke-linecap: butt; stroke-linejoin: miter; stroke-miterlimit: 10; fill: rgb(0,0,0); fill-rule: nonzero; opacity: 1;" transform=" matrix(1 0 0 1 0 0) " stroke-linecap="round"/>
</g>
</svg>